<?xml version="1.0" encoding="UTF-8"?><svg id="Layer_2" xmlns="http://www.w3.org/2000/svg" viewBox="0 0 961.7595 177.6441"><g id="Components"><g id="c3c1d698-d9af-410f-8641-a5a861831061_13"><rect x="368.0986" width="593.6609" height="137.5483" style="fill:#c8f135;"/><path d="M36.9994,134.5568V22.0467H0V.5872h249.2744v21.4595H62.7135v112.5101h-25.7141Z" style="fill:#0e131e;"/><path d="M131.9022,134.5568c-.7407-2.3407-1.2326-5.056-1.4785-8.1403-2.8383,3.2086-6.601,5.767-11.2853,7.6781-4.6899,1.911-10.1149,2.8665-16.2805,2.8665-10.4852,0-18.1605-2.3125-23.0313-6.9374-4.8737-4.6249-7.3077-10.6365-7.3077-18.0375,0-6.5345,1.046-11.7475,3.1436-15.6317,2.0976-3.8857,4.9953-6.9374,8.6958-9.158,3.7005-2.2192,8.1078-3.8532,13.2274-4.902,5.1168-1.046,10.6973-2.0029,16.7413-2.868,6.0412-.8608,10.1121-2.0029,12.2097-3.422,2.0976-1.4163,3.1464-3.7288,3.1464-6.9374,0-2.9598-1.388-5.2723-4.1613-6.9374-2.7761-1.6651-6.5077-2.4976-11.1948-2.4976-5.5493,0-9.5269,1.234-11.9326,3.7005-2.4029,2.4679-3.9154,5.7345-4.5316,9.8039h-22.384c.1216-4.6857.8933-9.0011,2.3125-12.9489,1.4163-3.9465,3.7005-7.3374,6.8441-10.1757,3.1464-2.8355,7.2455-5.0235,12.303-6.5671,5.0546-1.5407,11.2202-2.3125,18.4997-2.3125,7.1522,0,13.2274.8029,18.2227,2.4043,4.9953,1.6043,9.0011,3.9168,12.0259,6.9374,3.0192,3.0234,5.2073,6.7847,6.5671,11.2853,1.3541,4.5034,2.0354,9.5919,2.0354,15.2628v57.5345h-22.3868ZM130.2372,89.9727c-1.2326,1.234-3.022,2.2192-5.3656,2.9598-2.3436.7393-5.7331,1.5435-10.1743,2.4043-6.9091,1.3584-11.6556,3.0842-14.2451,5.1804-2.5895,2.0976-3.8843,5.1196-3.8843,9.0647,0,6.7847,3.8843,10.1743,11.6556,10.1743,3.0814,0,5.9479-.523,8.6025-1.5718,2.6489-1.046,4.9302-2.4651,6.8441-4.2546,1.911-1.7866,3.4517-3.8857,4.6249-6.29,1.1704-2.4058,1.7584-4.9642,1.7584-7.6781l.1838-9.9891Z" style="fill:#0e131e;"/><path d="M163.9036,177.6441V43.5368h23.1275l.1838,11.1001c5.5493-9.0011,13.9963-13.5044,25.3438-13.5044,5.6737,0,10.946,1.1096,15.8197,3.3302,4.8709,2.2192,9.0322,5.4278,12.4867,9.6202,3.4517,4.1938,6.1656,9.3135,8.1389,15.3547,1.9732,6.0441,2.9598,12.8882,2.9598,20.5351,0,6.9077-.8311,13.2274-2.4962,18.9619-1.6651,5.7345-4.1019,10.7015-7.3077,14.8925-3.2086,4.1938-7.124,7.4321-11.7489,9.7121-4.6249,2.2814-9.8972,3.422-15.8169,3.422-11.2231,0-20.227-4.7451-27.0089-14.2437v54.9267h-23.6815ZM206.8255,116.4275c13.8098,0,20.7189-9.3714,20.7189-28.1199,0-8.1403-1.9139-14.7681-5.7359-19.8877-3.8221-5.1168-8.758-7.6781-14.7992-7.6781-5.7981,0-10.6379,2.4058-14.5222,7.2158-3.8843,4.8101-5.8264,11.1001-5.8264,18.87,0,19.7337,6.7197,29.5998,20.1648,29.5998Z" style="fill:#0e131e;"/><path d="M311.3471,74.6166h22.3868v25.9007c0,4.8101-.7124,9.4053-2.1287,13.7815-1.4191,4.3804-3.6383,8.2647-6.6603,11.6556-3.022,3.3938-6.8441,6.0766-11.469,8.047-4.6249,1.9718-10.146,2.9598-16.5576,2.9598-6.6603,0-12.3341-.988-17.0184-2.9598-4.6899-1.9704-8.5431-4.6249-11.5651-7.9551-3.022-3.3288-5.2101-7.2144-6.5671-11.6542-1.3569-4.4398-2.0354-9.1255-2.0354-14.0599V.5872h23.6815v42.9497h50.3201v19.8025h-50.3201v34.5871c0,5.7995,1.0771,10.2676,3.2369,13.4126,2.157,3.145,5.7048,4.7182,10.6379,4.7182,4.8087,0,8.3537-1.5407,10.6379-4.6249,2.2814-3.0814,3.4206-7.4604,3.4206-13.1355v-23.6801Z" style="fill:#0e131e;"/><path d="M458.3251,67.8151c-1.8984,3.4219-4.8125,6.1846-8.7422,8.2842-3.9307,2.1016-8.8105,3.1514-14.6377,3.1514h-10.7744v25.6152h-17.3818V33.508h28.1562c5.6924,0,10.5039.9829,14.4346,2.9478,3.9297,1.9663,6.877,4.6758,8.8438,8.1318,1.9639,3.4561,2.9473,7.4204,2.9473,11.8931,0,4.1343-.9492,7.9131-2.8457,11.3345ZM441.0448,63.088c1.626-1.5581,2.4395-3.7612,2.4395-6.6074s-.8135-5.0474-2.4395-6.6069c-1.627-1.5581-4.1016-2.3379-7.4209-2.3379h-9.4531v17.8906h9.4531c3.3193,0,5.7939-.7788,7.4209-2.3384Z" style="fill:#0e131e;"/><path d="M483.7665,100.902c-5.5908-3.1162-10.0303-7.4717-13.3164-13.0625-3.2871-5.5908-4.9297-11.875-4.9297-18.8555s1.6426-13.248,4.9297-18.8057c3.2861-5.5557,7.7256-9.8931,13.3164-13.0112,5.5908-3.1162,11.7402-4.6758,18.4492-4.6758s12.8584,1.5596,18.4492,4.6758c5.5908,3.1182,9.9951,7.4556,13.2148,13.0112,3.2178,5.5576,4.8281,11.8262,4.8281,18.8057s-1.626,13.2646-4.8789,18.8555-7.6592,9.9463-13.2148,13.0625c-5.5576,3.1172-11.6895,4.6758-18.3984,4.6758s-12.8584-1.5586-18.4492-4.6758ZM515.8876,84.028c3.4209-3.7949,5.1338-8.8086,5.1338-15.0439,0-6.3027-1.7129-11.3345-5.1338-15.0952-3.4229-3.7612-7.9795-5.6416-13.6719-5.6416-5.7607,0-10.3525,1.8647-13.7734,5.5908-3.4229,3.7275-5.1328,8.7764-5.1328,15.146,0,6.3018,1.71,11.333,5.1328,15.0947,3.4209,3.7607,8.0127,5.6416,13.7734,5.6416,5.6924,0,10.249-1.8965,13.6719-5.6924Z" style="fill:#0e131e;"/><path d="M593.9745,37.9806c5.624,2.9829,9.9775,7.166,13.0625,12.5537,3.082,5.3872,4.625,11.6055,4.625,18.6528,0,6.9805-1.543,13.1807-4.625,18.6016-3.085,5.4229-7.4561,9.623-13.1133,12.6045-5.6592,2.9824-12.2148,4.4727-19.6689,4.4727h-26.7334V33.508h26.7334c7.5225,0,14.0947,1.4912,19.7197,4.4727ZM588.4852,84.4342c3.6602-3.5908,5.4893-8.6738,5.4893-15.2471s-1.8291-11.6899-5.4893-15.3491c-3.6592-3.6597-8.7764-5.4893-15.3486-5.4893h-8.2334v41.4731h8.2334c6.5723,0,11.6895-1.7949,15.3486-5.3877Z" style="fill:#0e131e;"/><path d="M621.6122,50.2291c3.0498-5.5225,7.3008-9.8247,12.7568-12.9092,5.4541-3.083,11.6387-4.625,18.5508-4.625,8.4707,0,15.7207,2.2358,21.7529,6.7085,6.0312,4.4727,10.0635,10.5718,12.0967,18.2969h-19.1104c-1.4229-2.981-3.4395-5.2505-6.0479-6.8105-2.6094-1.5581-5.5752-2.3379-8.8945-2.3379-5.3535,0-9.6914,1.8647-13.0107,5.5908-3.3213,3.7275-4.9814,8.7085-4.9814,14.9429s1.6602,11.2158,4.9814,14.9424c3.3193,3.7275,7.6572,5.5908,13.0107,5.5908,3.3193,0,6.2852-.7783,8.8945-2.3379,2.6084-1.5586,4.625-3.8281,6.0479-6.8105h19.1104c-2.0332,7.7246-6.0654,13.8076-12.0967,18.2461-6.0322,4.4385-13.2822,6.6572-21.7529,6.6572-6.9121,0-13.0967-1.54-18.5508-4.625-5.4561-3.082-9.707-7.3691-12.7568-12.8584-3.0498-5.4893-4.5742-11.7559-4.5742-18.8047s1.5244-13.3325,4.5742-18.8564Z" style="fill:#0e131e;"/><path d="M736.2518,92.2614h-26.6318l-4.2695,12.6045h-18.1953l25.8193-71.3579h20.127l25.8184,71.3579h-18.3984l-4.2695-12.6045ZM731.7802,78.8434l-8.8438-26.1235-8.7422,26.1235h17.5859Z" style="fill:#0e131e;"/><path d="M774.2684,103.0358c-4.1348-1.6924-7.4385-4.2002-9.9111-7.5215-2.4746-3.3193-3.7783-7.3193-3.9131-11.9951h18.5c.2695,2.6436,1.1846,4.6602,2.7441,6.0488,1.5586,1.3896,3.5918,2.083,6.0996,2.083,2.5742,0,4.6074-.5918,6.0986-1.7783,1.4902-1.1846,2.2363-2.8291,2.2363-4.9297,0-1.7617-.5938-3.2187-1.7793-4.3711-1.1855-1.1514-2.6426-2.0996-4.3701-2.8467-1.7285-.7451-4.1855-1.5908-7.3701-2.541-4.6094-1.4229-8.3701-2.8457-11.2832-4.2695-2.9141-1.4229-5.4219-3.5225-7.5215-6.3022-2.1016-2.7778-3.1514-6.4038-3.1514-10.8765,0-6.6401,2.4043-11.8418,7.2168-15.603,4.8115-3.7612,11.0801-5.6416,18.8057-5.6416,7.8604,0,14.1953,1.8804,19.0078,5.6416,4.8115,3.7612,7.3857,8.9961,7.7256,15.7051h-18.8047c-.1367-2.3032-.9834-4.1172-2.542-5.4385-1.5596-1.3213-3.5576-1.9819-5.9971-1.9819-2.1016,0-3.7959.5591-5.082,1.6772-1.2881,1.1177-1.9316,2.7285-1.9316,4.8281,0,2.3047,1.083,4.1011,3.2529,5.3872,2.168,1.2881,5.5557,2.6782,10.165,4.168,4.6074,1.5596,8.3506,3.0498,11.2324,4.4727,2.8789,1.4229,5.3691,3.4912,7.4707,6.2002,2.0996,2.7109,3.1514,6.2012,3.1514,10.4697,0,4.0664-1.0342,7.7607-3.1006,11.0801-2.0674,3.3213-5.0664,5.9639-8.9961,7.9287-3.9307,1.9668-8.5732,2.9482-13.9258,2.9482-5.2188,0-9.8945-.8467-14.0273-2.542Z" style="fill:#0e131e;"/><path d="M873.7411,33.508v13.9258h-18.9062v57.4321h-17.3818v-57.4321h-18.9072v-13.9258h55.1953Z" style="fill:#0e131e;"/><path d="M892.3016,103.0358c-4.1348-1.6924-7.4385-4.2002-9.9111-7.5215-2.4746-3.3193-3.7783-7.3193-3.9131-11.9951h18.5c.2695,2.6436,1.1846,4.6602,2.7441,6.0488,1.5586,1.3896,3.5918,2.083,6.0996,2.083,2.5742,0,4.6074-.5918,6.0986-1.7783,1.4902-1.1846,2.2363-2.8291,2.2363-4.9297,0-1.7617-.5938-3.2187-1.7793-4.3711-1.1855-1.1514-2.6426-2.0996-4.3701-2.8467-1.7285-.7451-4.1855-1.5908-7.3701-2.541-4.6094-1.4229-8.3701-2.8457-11.2832-4.2695-2.9141-1.4229-5.4219-3.5225-7.5215-6.3022-2.1016-2.7778-3.1514-6.4038-3.1514-10.8765,0-6.6401,2.4043-11.8418,7.2168-15.603,4.8115-3.7612,11.0801-5.6416,18.8057-5.6416,7.8604,0,14.1953,1.8804,19.0078,5.6416,4.8115,3.7612,7.3857,8.9961,7.7256,15.7051h-18.8047c-.1367-2.3032-.9834-4.1172-2.542-5.4385-1.5596-1.3213-3.5576-1.9819-5.9971-1.9819-2.1016,0-3.7959.5591-5.082,1.6772-1.2881,1.1177-1.9316,2.7285-1.9316,4.8281,0,2.3047,1.083,4.1011,3.2529,5.3872,2.168,1.2881,5.5557,2.6782,10.165,4.168,4.6074,1.5596,8.3506,3.0498,11.2324,4.4727,2.8789,1.4229,5.3691,3.4912,7.4707,6.2002,2.0996,2.7109,3.1514,6.2012,3.1514,10.4697,0,4.0664-1.0342,7.7607-3.1006,11.0801-2.0674,3.3213-5.0664,5.9639-8.9961,7.9287-3.9307,1.9668-8.5732,2.9482-13.9258,2.9482-5.2188,0-9.8945-.8467-14.0273-2.542Z" style="fill:#0e131e;"/></g></g></svg>